<?xml version="1.0" encoding="utf-8"?>
<!-- Generator: Adobe Illustrator 16.0.0, SVG Export Plug-In . SVG Version: 6.00 Build 0)  -->
<!DOCTYPE svg PUBLIC "-//W3C//DTD SVG 1.1//EN" "http://www.w3.org/Graphics/SVG/1.1/DTD/svg11.dtd">
<svg version="1.1" id="Layer_1" xmlns="http://www.w3.org/2000/svg" xmlns:xlink="http://www.w3.org/1999/xlink" x="0px" y="0px"
	 width="20px" height="20px" viewBox="0 0 20 20" enable-background="new 0 0 20 20" xml:space="preserve">
<g>
	<g>
		<path fill-rule="evenodd" clip-rule="evenodd" fill="none" d="M0.054,10.052c0-3.26,0.002-6.52-0.005-9.78
			c0-0.183,0.032-0.224,0.22-0.224c6.52,0.006,13.04,0.007,19.559-0.001c0.211,0,0.229,0.062,0.229,0.242
			c-0.004,6.529-0.004,13.058,0.002,19.586c0,0.192-0.035,0.237-0.234,0.237c-6.51-0.007-13.021-0.007-19.532,0.001
			c-0.215,0-0.243-0.063-0.243-0.256C0.056,16.59,0.054,13.32,0.054,10.052z M10.415,5.157c0.033-0.042,0.067-0.083,0.101-0.125
			c0.416-0.507,0.89-0.964,1.49-1.229c1.197-0.526,2.855-0.436,4.013,0.711c1.136,1.126,1.492,2.473,1.282,4.008
			c-0.145,1.057-0.729,1.883-1.435,2.644c-0.448,0.48-0.875,0.981-1.306,1.478c-0.633,0.728-1.262,1.458-1.89,2.188
			c-0.399,0.465-0.806,0.924-1.205,1.388c-0.339,0.395-0.653,0.818-1.079,1.135c-0.177,0.131-0.356,0.148-0.524,0.027
			c-0.204-0.147-0.415-0.302-0.57-0.496c-0.692-0.867-1.455-1.673-2.182-2.509c-1.029-1.183-2.042-2.379-3.09-3.545
			C2.975,9.667,2.605,8.329,2.873,6.8c0.263-1.5,1.493-2.951,2.973-3.24c1.31-0.256,2.445,0.048,3.385,1.022
			c0.168,0.174,0.372,0.313,0.515,0.432c0.01,0.032,0.008-0.008-0.012-0.033c-0.396-0.51-0.86-0.954-1.444-1.23
			C7.307,3.286,6.283,3.24,5.271,3.638C4.222,4.049,3.508,4.829,3.068,5.852C2.545,7.067,2.534,8.298,3.027,9.53
			c0.207,0.518,0.531,0.947,0.904,1.361c0.758,0.84,1.477,1.715,2.219,2.57c0.442,0.51,0.898,1.007,1.344,1.513
			c0.807,0.918,1.613,1.836,2.412,2.761c0.147,0.171,0.234,0.208,0.398,0.008c0.473-0.577,0.965-1.138,1.452-1.702
			c0.481-0.558,0.964-1.114,1.448-1.67c1.039-1.193,2.059-2.404,3.125-3.573c0.766-0.838,1.103-1.822,1.151-2.921
			c0.036-0.815-0.155-1.596-0.534-2.317c-0.416-0.792-1.012-1.449-1.835-1.801C13.74,3.17,12.406,3.269,11.193,4.21
			C10.863,4.467,10.568,4.763,10.415,5.157z M2.828,10.544c-0.119-0.249-0.253-0.491-0.354-0.747C1.929,8.409,1.93,7.015,2.49,5.637
			c0.445-1.096,1.192-1.955,2.252-2.484C5.721,2.663,6.77,2.618,7.828,2.886c0.85,0.215,1.529,0.702,2.086,1.362
			c0.148,0.175,0.227,0.155,0.352-0.009c0.352-0.459,0.81-0.81,1.318-1.051c1.57-0.746,3.357-0.583,4.754,0.602
			c0.396,0.336,0.733,0.745,0.996,1.198c0.559,0.96,0.799,2,0.734,3.109c-0.057,0.966-0.342,1.854-0.891,2.652
			c-0.358,0.521-0.813,0.961-1.219,1.44c-1.035,1.223-2.099,2.419-3.154,3.623c-0.604,0.69-1.226,1.366-1.818,2.066
			c-0.193,0.23-0.41,0.444-0.576,0.699c0.414-0.321,0.736-0.732,1.072-1.124c0.781-0.909,1.566-1.814,2.357-2.714
			c0.416-0.474,0.824-0.954,1.244-1.424c0.618-0.691,1.205-1.41,1.816-2.108c0.359-0.412,0.654-0.869,0.848-1.375
			c0.613-1.602,0.563-3.177-0.253-4.708c-0.72-1.35-1.839-2.17-3.328-2.477c-0.915-0.188-1.77,0.075-2.601,0.434
			c-0.131,0.057-0.266,0.122-0.375,0.212c-0.273,0.224-0.57,0.412-0.873,0.593c-0.154,0.092-0.308,0.104-0.458,0.006
			C9.588,3.717,9.308,3.548,9.052,3.35C8.506,2.927,7.862,2.73,7.209,2.625C6.618,2.53,6.019,2.582,5.422,2.78
			c-0.999,0.331-1.792,0.895-2.399,1.75c-1.021,1.437-1.244,3.008-0.82,4.69C2.324,9.698,2.522,10.147,2.828,10.544z M3.099,10.962
			c2.171,2.543,4.339,5.089,6.621,7.535C7.502,15.994,5.329,13.453,3.099,10.962z"/>
		<path fill-rule="evenodd" clip-rule="evenodd" d="M10.415,5.157c0.153-0.394,0.448-0.69,0.778-0.947
			c1.213-0.941,2.547-1.041,3.919-0.452c0.823,0.353,1.419,1.009,1.835,1.801c0.379,0.721,0.57,1.502,0.534,2.317
			c-0.049,1.099-0.386,2.083-1.151,2.921c-1.066,1.169-2.086,2.38-3.125,3.573c-0.484,0.556-0.967,1.112-1.448,1.67
			c-0.487,0.564-0.979,1.125-1.452,1.702c-0.164,0.2-0.251,0.163-0.398-0.008c-0.799-0.925-1.605-1.843-2.412-2.761
			c-0.445-0.506-0.902-1.003-1.344-1.513c-0.742-0.855-1.461-1.73-2.219-2.57c-0.373-0.414-0.697-0.844-0.904-1.361
			C2.534,8.298,2.545,7.067,3.068,5.852c0.44-1.023,1.154-1.802,2.203-2.214C6.283,3.24,7.307,3.286,8.289,3.75
			c0.584,0.276,1.048,0.72,1.444,1.23c0.02,0.025,0.022,0.065,0.012,0.033C9.603,4.895,9.398,4.756,9.23,4.582
			C8.291,3.608,7.155,3.304,5.845,3.56C4.365,3.849,3.136,5.3,2.873,6.8c-0.268,1.529,0.102,2.867,1.149,4.033
			c1.048,1.166,2.061,2.362,3.09,3.545c0.727,0.836,1.49,1.642,2.182,2.509c0.155,0.194,0.366,0.349,0.57,0.496
			c0.167,0.121,0.347,0.104,0.524-0.027c0.426-0.316,0.74-0.74,1.079-1.135c0.399-0.464,0.806-0.923,1.205-1.388
			c0.628-0.73,1.257-1.461,1.89-2.188c0.431-0.496,0.857-0.997,1.306-1.478c0.706-0.761,1.29-1.587,1.435-2.644
			c0.21-1.536-0.146-2.882-1.282-4.008c-1.157-1.147-2.815-1.237-4.013-0.711c-0.601,0.264-1.074,0.722-1.49,1.229
			C10.482,5.074,10.448,5.116,10.415,5.157z"/>
		<path fill-rule="evenodd" clip-rule="evenodd" d="M2.828,10.544C2.522,10.147,2.324,9.698,2.203,9.22
			c-0.424-1.683-0.2-3.253,0.82-4.69c0.607-0.855,1.4-1.418,2.399-1.75c0.596-0.198,1.196-0.25,1.787-0.155
			C7.862,2.73,8.506,2.927,9.052,3.35C9.308,3.548,9.588,3.717,9.86,3.893c0.15,0.098,0.304,0.086,0.458-0.006
			c0.303-0.182,0.6-0.369,0.873-0.593c0.109-0.09,0.244-0.155,0.375-0.212c0.831-0.359,1.686-0.622,2.601-0.434
			c1.489,0.307,2.608,1.127,3.328,2.477c0.815,1.53,0.866,3.106,0.253,4.708c-0.193,0.506-0.488,0.963-0.848,1.375
			c-0.611,0.698-1.198,1.417-1.816,2.108c-0.42,0.47-0.828,0.95-1.244,1.424c-0.791,0.899-1.576,1.805-2.357,2.714
			c-0.336,0.392-0.658,0.803-1.072,1.124c0.166-0.255,0.383-0.469,0.576-0.699c0.593-0.7,1.214-1.376,1.818-2.066
			c1.056-1.204,2.119-2.4,3.154-3.623c0.406-0.479,0.86-0.92,1.219-1.44c0.549-0.799,0.834-1.687,0.891-2.652
			c0.064-1.109-0.176-2.148-0.734-3.109c-0.263-0.454-0.6-0.862-0.996-1.198c-1.396-1.186-3.184-1.348-4.754-0.602
			c-0.509,0.241-0.967,0.592-1.318,1.051c-0.125,0.164-0.204,0.184-0.352,0.009c-0.557-0.66-1.236-1.147-2.086-1.362
			C6.77,2.618,5.721,2.663,4.742,3.152C3.682,3.682,2.935,4.541,2.49,5.637C1.93,7.015,1.929,8.409,2.475,9.797
			C2.575,10.053,2.709,10.295,2.828,10.544z"/>
		<path fill-rule="evenodd" clip-rule="evenodd" d="M3.099,10.962c2.23,2.491,4.403,5.032,6.621,7.535
			C7.438,16.051,5.27,13.505,3.099,10.962z"/>
	</g>
</g>
</svg>
